HIERARCHY
ROOT Hips
{
	OFFSET -0.001795 -0.223333 0.028219
	CHANNELS 6 Xposition Yposition Zposition Zrotation Yrotation Xrotation 
	JOINT LeftUpLeg
	{
		OFFSET 0.069520 -0.091406 -0.006815
		CHANNELS 3 Zrotation Yrotation Xrotation
		JOINT LeftLeg
		{
			OFFSET 0.034277 -0.375199 -0.004496
			CHANNELS 3 Zrotation Yrotation Xrotation
			JOINT LeftFoot
			{
				OFFSET -0.013596 -0.397961 -0.043693
				CHANNELS 3 Zrotation Yrotation Xrotation
				JOINT LeftToe
				{
					OFFSET 0.026358 -0.055791 0.119288
					CHANNELS 3 Zrotation Yrotation Xrotation
					End Site
					{
						OFFSET 0.000000 0.000000 0.000000
					}
				}
			}
		}
	}
	JOINT RightUpLeg
	{
		OFFSET -0.067670 -0.090522 -0.004320
		CHANNELS 3 Zrotation Yrotation Xrotation
		JOINT RightLeg
		{
			OFFSET -0.038290 -0.382569 -0.008850
			CHANNELS 3 Zrotation Yrotation Xrotation
			JOINT RightFoot
			{
				OFFSET 0.015774 -0.398415 -0.042312
				CHANNELS 3 Zrotation Yrotation Xrotation
				JOINT RightToe
				{
					OFFSET -0.025372 -0.048144 0.123348
					CHANNELS 3 Zrotation Yrotation Xrotation
					End Site
					{
						OFFSET 0.000000 0.000000 0.000000
					}
				}
			}
		}
	}
	JOINT Spine
	{
		OFFSET -0.002533 0.108963 -0.026696
		CHANNELS 3 Zrotation Yrotation Xrotation
		JOINT Spine1
		{
			OFFSET 0.005487 0.135180 0.001092
			CHANNELS 3 Zrotation Yrotation Xrotation
			JOINT Spine2
			{
				OFFSET 0.001457 0.052922 0.025425
				CHANNELS 3 Zrotation Yrotation Xrotation
				JOINT Neck
				{
					OFFSET -0.002778 0.213870 -0.042857
					CHANNELS 3 Zrotation Yrotation Xrotation
					JOINT Head
					{
						OFFSET 0.005152 0.064970 0.051349
						CHANNELS 3 Zrotation Yrotation Xrotation
						End Site
						{
							OFFSET 0.000000 0.000000 0.000000
						}
					}
				}
				JOINT LeftShoulder
				{
					OFFSET 0.078845 0.121749 -0.034090
					CHANNELS 3 Zrotation Yrotation Xrotation
					JOINT LeftArm
					{
						OFFSET 0.090977 0.030469 -0.008868
						CHANNELS 3 Zrotation Yrotation Xrotation
						JOINT LeftForeArm
						{
							OFFSET 0.259612 -0.012772 -0.027456
							CHANNELS 3 Zrotation Yrotation Xrotation
							JOINT LeftHand
							{
								OFFSET 0.249234 0.008986 -0.001171
								CHANNELS 3 Zrotation Yrotation Xrotation
								End Site
								{
									OFFSET 0.000000 0.000000 0.000000
								}
							}
						}
					}
				}
				JOINT RightShoulder
				{
					OFFSET -0.081759 0.118833 -0.038615
					CHANNELS 3 Zrotation Yrotation Xrotation
					JOINT RightArm
					{
						OFFSET -0.096012 0.032551 -0.009143
						CHANNELS 3 Zrotation Yrotation Xrotation
						JOINT RightForeArm
						{
							OFFSET -0.253742 -0.013329 -0.021401
							CHANNELS 3 Zrotation Yrotation Xrotation
							JOINT RightHand
							{
								OFFSET -0.255298 0.007772 -0.005559
								CHANNELS 3 Zrotation Yrotation Xrotation
								End Site
								{
									OFFSET 0.000000 0.000000 0.000000
								}
							}
						}
					}
				}
			}
		}
	}
}
MOTION
Frames: 7
Frame Time: 0.050000
0.594825 0.940996 0.680172 -172.528939 21.068655 -173.101741 14.825179 -10.525051 -15.342978 -10.061939 -8.319712 14.736257 43.958715 -17.117207 26.136804 0.000000 0.000000 0.000000 9.471977 -7.634077 -21.208600 -7.928150 -9.680284 14.618622 46.698927 -3.777248 5.536785 0.000000 0.000000 0.000000 -17.657115 -10.961707 25.075353 -32.782745 -25.806251 -6.245064 15.475509 35.105340 18.641252 -22.013035 -23.923963 -12.293449 0.000000 0.000000 0.000000 3.285717 -30.768645 -41.927774 -15.473430 14.259183 -1.328529 -8.995512 -25.322006 -1.884652 0.000000 0.000000 0.000000 17.540476 -14.141051 41.747536 50.445513 39.504090 12.565053 -6.821136 44.640609 -3.988003 0.000000 0.000000 0.000000 
0.592240 0.941106 0.675999 -172.589615 21.281221 -173.356340 14.519244 -10.279694 -14.985715 -10.673252 -8.659144 15.201833 45.826500 -17.592020 26.999380 0.000000 0.000000 0.000000 8.629960 -7.613188 -20.585617 -7.210874 -9.750701 14.270794 45.060034 -3.845287 5.312672 0.000000 0.000000 0.000000 -17.632384 -10.926032 25.020130 -34.324820 -26.776314 -4.661024 16.270767 36.167006 18.118197 -21.099372 -22.389316 -12.467016 0.000000 0.000000 0.000000 2.204166 -30.985569 -41.042258 -14.833843 12.985470 -0.888091 -6.019395 -23.348220 -2.048759 0.000000 0.000000 0.000000 18.622595 -13.485944 41.438660 50.601106 37.696778 10.583391 -6.812257 44.743342 -4.192962 0.000000 0.000000 0.000000 
0.591326 0.940575 0.672204 -172.409988 21.733306 -173.218194 14.584560 -10.237217 -14.405243 -10.797703 -8.564564 14.772116 45.530102 -16.828082 26.277621 0.000000 0.000000 0.000000 8.336553 -7.538178 -20.277952 -6.440999 -9.424554 13.457005 42.431938 -3.948934 5.712775 0.000000 0.000000 0.000000 -17.714926 -10.854703 24.914385 -34.322159 -26.591254 -4.544192 16.004771 36.404912 17.881051 -20.815348 -21.810039 -12.677565 0.000000 0.000000 0.000000 1.749134 -31.555270 -40.372810 -13.920953 11.718956 -0.492482 -4.153290 -21.094288 -2.040429 0.000000 0.000000 0.000000 19.378660 -13.549607 41.269274 50.184111 36.193487 8.908790 -4.666495 45.719926 -3.343761 0.000000 0.000000 0.000000 
0.591735 0.941324 0.668753 -172.166508 22.140949 -173.273779 15.154726 -10.536495 -13.922458 -11.580837 -8.728657 14.861683 46.384425 -16.525271 27.377502 0.000000 0.000000 0.000000 7.900794 -7.450134 -19.942856 -5.491894 -9.881370 13.381090 38.678613 -3.809695 6.404902 0.000000 0.000000 0.000000 -17.709102 -10.717638 24.616714 -34.885268 -26.639620 -3.397601 16.179936 36.492198 17.313461 -20.286167 -20.491901 -12.830617 0.000000 0.000000 0.000000 0.560217 -31.387423 -39.958778 -13.450550 10.713224 -0.180710 -2.208558 -19.636057 -2.079258 0.000000 0.000000 0.000000 20.098434 -13.309409 40.240927 49.672428 34.621144 7.395897 -3.044262 46.878882 -2.596777 0.000000 0.000000 0.000000 
0.593121 0.941592 0.665191 -171.979459 22.176150 -173.250034 15.612708 -10.847061 -13.198578 -12.020261 -8.691019 13.975829 46.853506 -16.244099 27.096258 0.000000 0.000000 0.000000 7.665950 -6.992234 -19.109606 -4.842598 -9.650308 12.535891 36.972035 -4.493322 6.593453 0.000000 0.000000 0.000000 -17.416571 -10.551779 24.428685 -34.445463 -26.164882 -3.167672 15.611273 35.773807 16.777629 -19.546614 -19.673504 -13.509256 0.000000 0.000000 0.000000 0.123560 -31.280886 -39.883516 -13.745856 10.396737 -0.147023 -0.887502 -18.395076 -2.171732 0.000000 0.000000 0.000000 20.133342 -13.188537 39.833448 50.376062 33.565316 7.034883 -1.643444 47.603379 -1.942345 0.000000 0.000000 0.000000 
0.594606 0.942578 0.661110 -171.799321 22.182589 -173.313068 16.066232 -11.199712 -12.308968 -12.126113 -8.535757 13.493663 47.095855 -16.252633 27.748707 0.000000 0.000000 0.000000 7.179957 -6.997013 -18.700233 -4.303724 -10.170030 12.684794 35.553450 -4.480464 6.882127 0.000000 0.000000 0.000000 -17.512560 -10.505605 24.218277 -33.712649 -25.539973 -3.273513 15.410239 35.112386 16.740304 -18.013122 -18.739326 -14.524401 0.000000 0.000000 0.000000 0.066299 -30.941247 -40.233937 -14.488656 10.891390 -0.319205 -0.394061 -17.821163 -2.242848 0.000000 0.000000 0.000000 19.636202 -13.323043 39.214435 50.507191 33.126017 7.364665 0.238948 48.155892 -0.748239 0.000000 0.000000 0.000000 
0.595761 0.943145 0.656673 -171.820422 22.665641 -173.527882 16.045342 -11.203040 -11.259493 -11.690594 -8.161002 12.890179 46.359916 -15.652856 27.436666 0.000000 0.000000 0.000000 6.703351 -6.842331 -18.102286 -4.248703 -10.423746 12.961699 35.776339 -4.301972 6.940411 0.000000 0.000000 0.000000 -17.064242 -10.156789 23.818014 -33.399629 -25.058196 -3.138446 15.140990 34.459051 16.374968 -17.088845 -17.760394 -14.630718 0.000000 0.000000 0.000000 -0.493724 -30.050588 -40.505562 -15.562238 11.838093 -0.580230 -1.214363 -18.627915 -2.192549 0.000000 0.000000 0.000000 19.708725 -13.481819 38.121105 49.518838 32.278001 6.818146 1.352193 49.186398 0.275004 0.000000 0.000000 0.000000 
